<?xml version="1.0" encoding="UTF-8"?>
<!DOCTYPE svg PUBLIC "-//W3C//DTD SVG 1.1//EN" "http://www.w3.org/Graphics/SVG/1.1/DTD/svg11.dtd">
<svg xmlns="http://www.w3.org/2000/svg" version="1.1" width="340px" height="138px" style="shape-rendering:geometricPrecision; text-rendering:geometricPrecision; image-rendering:optimizeQuality; fill-rule:evenodd; clip-rule:evenodd" xmlns:xlink="http://www.w3.org/1999/xlink">
<g><path style="opacity:1" fill="#fefefe" d="M -0.5,-0.5 C 112.833,-0.5 226.167,-0.5 339.5,-0.5C 339.5,45.5 339.5,91.5 339.5,137.5C 226.167,137.5 112.833,137.5 -0.5,137.5C -0.5,91.5 -0.5,45.5 -0.5,-0.5 Z"/></g>
<g><path style="opacity:1" fill="#3d5af5" d="M 62.5,33.5 C 61.6829,35.4779 60.1829,36.4779 58,36.5C 53.4549,35.2622 48.9549,33.9289 44.5,32.5C 43.0536,31.3871 41.3869,31.2204 39.5,32C 35.1009,33.4104 30.7676,34.9104 26.5,36.5C 24.8333,35.5 23.5,34.1667 22.5,32.5C 27.876,28.9865 33.876,27.3198 40.5,27.5C 48.5939,27.1704 55.9272,29.1704 62.5,33.5 Z"/></g>
<g><path style="opacity:1" fill="#324342" d="M 14.5,26.5 C 16.9024,28.9092 19.5691,30.9092 22.5,32.5C 23.5,34.1667 24.8333,35.5 26.5,36.5C 26.6567,37.8734 26.49,39.2068 26,40.5C 23.5577,43.1165 21.0577,45.4498 18.5,47.5C 17.1662,40.499 15.8328,33.499 14.5,26.5 Z"/></g>
<g><path style="opacity:1" fill="#334441" d="M 70.5,27.5 C 68.3506,34.7547 66.8506,42.0881 66,49.5C 69.634,47.3453 73.4674,45.6786 77.5,44.5C 77.1667,45.8333 76.8333,47.1667 76.5,48.5C 71.6951,64.6915 68.3618,81.0249 66.5,97.5C 66.6653,93.8183 66.4986,90.1516 66,86.5C 58.216,90.3091 50.3827,93.9758 42.5,97.5C 36.6563,96.2428 31.3229,93.9094 26.5,90.5C 29.7761,89.7169 33.1094,88.7169 36.5,87.5C 38.5104,88.3621 40.5104,88.8621 42.5,89C 41.8239,86.6608 41.8239,84.1608 42.5,81.5C 44.5652,81.047 46.2318,80.047 47.5,78.5C 48.0431,78.44 48.3764,78.1067 48.5,77.5C 46.2573,76.5258 43.924,76.1924 41.5,76.5C 41.5,74.1667 41.5,71.8333 41.5,69.5C 36.3453,69.9646 31.3453,71.1312 26.5,73C 23.6841,76.7835 20.5174,80.2835 17,83.5C 19.3598,78.4191 21.5265,73.0858 23.5,67.5C 25.4412,67.8693 27.2745,68.536 29,69.5C 29.9411,67.0106 29.4411,65.0106 27.5,63.5C 30.9834,53.5268 35.3167,43.8601 40.5,34.5C 41.7658,33.6376 43.0992,32.9709 44.5,32.5C 48.9549,33.9289 53.4549,35.2622 58,36.5C 60.1829,36.4779 61.6829,35.4779 62.5,33.5C 65.1667,31.5 67.8333,29.5 70.5,27.5 Z"/></g>
<g><path style="opacity:1" fill="#db8dab" d="M 14.5,26.5 C 15.8328,33.499 17.1662,40.499 18.5,47.5C 18.44,48.0431 18.1067,48.3764 17.5,48.5C 14.1401,46.8201 10.8068,45.1534 7.5,43.5C 8.49491,37.1902 10.8282,31.5235 14.5,26.5 Z"/></g>
<g><path style="opacity:1" fill="#5e6664" d="M 44.5,32.5 C 43.0992,32.9709 41.7658,33.6376 40.5,34.5C 35.3167,43.8601 30.9834,53.5268 27.5,63.5C 24.2053,62.1755 22.872,63.5089 23.5,67.5C 21.5265,73.0858 19.3598,78.4191 17,83.5C 20.5174,80.2835 23.6841,76.7835 26.5,73C 31.3453,71.1312 36.3453,69.9646 41.5,69.5C 41.5,71.8333 41.5,74.1667 41.5,76.5C 43.924,76.1924 46.2573,76.5258 48.5,77.5C 48.3764,78.1067 48.0431,78.44 47.5,78.5C 43.6888,77.3547 39.6888,77.1881 35.5,78C 37.3091,80.2379 39.6424,81.4046 42.5,81.5C 41.8239,84.1608 41.8239,86.6608 42.5,89C 40.5104,88.8621 38.5104,88.3621 36.5,87.5C 33.1094,88.7169 29.7761,89.7169 26.5,90.5C 22.6837,89.0906 19.0171,87.424 15.5,85.5C 13.0474,72.783 10.3807,60.1164 7.5,47.5C 7.5,46.1667 7.5,44.8333 7.5,43.5C 10.8068,45.1534 14.1401,46.8201 17.5,48.5C 18.1067,48.3764 18.44,48.0431 18.5,47.5C 21.0577,45.4498 23.5577,43.1165 26,40.5C 26.49,39.2068 26.6567,37.8734 26.5,36.5C 30.7676,34.9104 35.1009,33.4104 39.5,32C 41.3869,31.2204 43.0536,31.3871 44.5,32.5 Z"/></g>
<g><path style="opacity:1" fill="#f6cbd9" d="M 70.5,27.5 C 73.6281,32.767 75.9615,38.4337 77.5,44.5C 73.4674,45.6786 69.634,47.3453 66,49.5C 66.8506,42.0881 68.3506,34.7547 70.5,27.5 Z"/></g>
<g><path style="opacity:1" fill="#3c5af6" d="M 7.5,47.5 C 10.3807,60.1164 13.0474,72.783 15.5,85.5C 15.5,88.1667 15.5,90.8333 15.5,93.5C 14.5,94.1667 13.5,94.8333 12.5,95.5C 3.26196,84.9355 -0.238043,72.6022 2,58.5C 2.80996,54.2131 4.64329,50.5464 7.5,47.5 Z"/></g>
<g><path style="opacity:1" fill="#3859d2" d="M 76.5,48.5 C 78.1361,49.7489 79.3028,51.4156 80,53.5C 86.2396,82.6861 74.9063,101.019 46,108.5C 45.2352,108.43 44.7352,108.097 44.5,107.5C 51.8333,104.167 59.1667,100.833 66.5,97.5C 68.3618,81.0249 71.6951,64.6915 76.5,48.5 Z"/></g>
<g><path style="opacity:1" fill="#e8b320" d="M 58.5,62.5 C 61.1389,64.1587 61.1389,65.992 58.5,68C 54.5424,70.5584 52.8757,69.3917 53.5,64.5C 55.5529,64.5979 57.2196,63.9313 58.5,62.5 Z"/></g>
<g><path style="opacity:1" fill="#e9b320" d="M 27.5,63.5 C 29.4411,65.0106 29.9411,67.0106 29,69.5C 27.2745,68.536 25.4412,67.8693 23.5,67.5C 22.872,63.5089 24.2053,62.1755 27.5,63.5 Z"/></g>
<g><path style="opacity:1" fill="#e399b5" d="M 47.5,78.5 C 46.2318,80.047 44.5652,81.047 42.5,81.5C 39.6424,81.4046 37.3091,80.2379 35.5,78C 39.6888,77.1881 43.6888,77.3547 47.5,78.5 Z"/></g>
<g><path style="opacity:1" fill="#f6c835" d="M 15.5,85.5 C 19.0171,87.424 22.6837,89.0906 26.5,90.5C 31.3229,93.9094 36.6563,96.2428 42.5,97.5C 41.5773,101.064 41.244,104.731 41.5,108.5C 40.0413,108.567 38.7079,108.234 37.5,107.5C 30.5266,104.013 23.5266,100.513 16.5,97C 15.6634,95.9887 15.33,94.8221 15.5,93.5C 15.5,90.8333 15.5,88.1667 15.5,85.5 Z"/></g>
<g><path style="opacity:1" fill="#ecac12" d="M 66.5,97.5 C 59.1667,100.833 51.8333,104.167 44.5,107.5C 43.609,108.11 42.609,108.443 41.5,108.5C 41.244,104.731 41.5773,101.064 42.5,97.5C 50.3827,93.9758 58.216,90.3091 66,86.5C 66.4986,90.1516 66.6653,93.8183 66.5,97.5 Z"/></g>
<g><path style="opacity:1" fill="#4560d5" d="M 15.5,93.5 C 15.33,94.8221 15.6634,95.9887 16.5,97C 23.5266,100.513 30.5266,104.013 37.5,107.5C 27.6893,107.099 19.356,103.099 12.5,95.5C 13.5,94.8333 14.5,94.1667 15.5,93.5 Z"/></g>
</svg>
