<svg xmlns="http://www.w3.org/2000/svg" xmlns:xlink="http://www.w3.org/1999/xlink" width="340" zoomAndPan="magnify" viewBox="0 0 255 103.5" height="138" preserveAspectRatio="xMidYMid meet" version="1.0"><defs><g/><clipPath id="7616885342"><path d="M 1 20 L 63 20 L 63 82 L 1 82 Z M 1 20 " clip-rule="nonzero"/></clipPath><clipPath id="beea4dc8e0"><path d="M 1.6875 19.46875 L 63.628906 20.550781 L 62.546875 82.492188 L 0.609375 81.410156 Z M 1.6875 19.46875 " clip-rule="nonzero"/></clipPath><clipPath id="ee7b0d16d7"><path d="M 1.6875 19.46875 L 63.628906 20.550781 L 62.546875 82.492188 L 0.609375 81.410156 Z M 1.6875 19.46875 " clip-rule="nonzero"/></clipPath><clipPath id="b2869665e1"><path d="M 1.6875 19.46875 L 63.628906 20.550781 L 62.546875 82.492188 L 0.609375 81.410156 Z M 1.6875 19.46875 " clip-rule="nonzero"/></clipPath><clipPath id="90bf283078"><path d="M 10 29 L 63 29 L 63 82 L 10 82 Z M 10 29 " clip-rule="nonzero"/></clipPath><clipPath id="6774705462"><path d="M 1.6875 19.46875 L 63.628906 20.550781 L 62.546875 82.492188 L 0.609375 81.410156 Z M 1.6875 19.46875 " clip-rule="nonzero"/></clipPath><clipPath id="a1c6a5ef4e"><path d="M 1.6875 19.46875 L 63.628906 20.550781 L 62.546875 82.492188 L 0.609375 81.410156 Z M 1.6875 19.46875 " clip-rule="nonzero"/></clipPath><clipPath id="92e6f13ac7"><path d="M 1.6875 19.46875 L 63.628906 20.550781 L 62.546875 82.492188 L 0.609375 81.410156 Z M 1.6875 19.46875 " clip-rule="nonzero"/></clipPath><clipPath id="ab01cdb296"><path d="M 12 31 L 52 31 L 52 82 L 12 82 Z M 12 31 " clip-rule="nonzero"/></clipPath><clipPath id="73351f9dd1"><path d="M 1.6875 19.46875 L 63.628906 20.550781 L 62.546875 82.492188 L 0.609375 81.410156 Z M 1.6875 19.46875 " clip-rule="nonzero"/></clipPath><clipPath id="58f22e5e8e"><path d="M 1.6875 19.46875 L 63.628906 20.550781 L 62.546875 82.492188 L 0.609375 81.410156 Z M 1.6875 19.46875 " clip-rule="nonzero"/></clipPath><clipPath id="0d13c6a254"><path d="M 1.6875 19.46875 L 63.628906 20.550781 L 62.546875 82.492188 L 0.609375 81.410156 Z M 1.6875 19.46875 " clip-rule="nonzero"/></clipPath><clipPath id="2abe19eb76"><path d="M 31 31 L 52 31 L 52 82 L 31 82 Z M 31 31 " clip-rule="nonzero"/></clipPath><clipPath id="e04e7e415d"><path d="M 1.6875 19.46875 L 63.628906 20.550781 L 62.546875 82.492188 L 0.609375 81.410156 Z M 1.6875 19.46875 " clip-rule="nonzero"/></clipPath><clipPath id="ca77764ccf"><path d="M 1.6875 19.46875 L 63.628906 20.550781 L 62.546875 82.492188 L 0.609375 81.410156 Z M 1.6875 19.46875 " clip-rule="nonzero"/></clipPath><clipPath id="3e1ef598e2"><path d="M 1.6875 19.46875 L 63.628906 20.550781 L 62.546875 82.492188 L 0.609375 81.410156 Z M 1.6875 19.46875 " clip-rule="nonzero"/></clipPath><clipPath id="a7c2b0cff6"><path d="M 5 23 L 59 23 L 59 74 L 5 74 Z M 5 23 " clip-rule="nonzero"/></clipPath><clipPath id="1bc1185ee4"><path d="M 1.6875 19.46875 L 63.628906 20.550781 L 62.546875 82.492188 L 0.609375 81.410156 Z M 1.6875 19.46875 " clip-rule="nonzero"/></clipPath><clipPath id="8416a1e3ee"><path d="M 1.6875 19.46875 L 63.628906 20.550781 L 62.546875 82.492188 L 0.609375 81.410156 Z M 1.6875 19.46875 " clip-rule="nonzero"/></clipPath><clipPath id="fed3e497b9"><path d="M 1.6875 19.46875 L 63.628906 20.550781 L 62.546875 82.492188 L 0.609375 81.410156 Z M 1.6875 19.46875 " clip-rule="nonzero"/></clipPath><clipPath id="eb1e5c6343"><path d="M 12 23 L 59 23 L 59 74 L 12 74 Z M 12 23 " clip-rule="nonzero"/></clipPath><clipPath id="aa11357d04"><path d="M 1.6875 19.46875 L 63.628906 20.550781 L 62.546875 82.492188 L 0.609375 81.410156 Z M 1.6875 19.46875 " clip-rule="nonzero"/></clipPath><clipPath id="f01b421593"><path d="M 1.6875 19.46875 L 63.628906 20.550781 L 62.546875 82.492188 L 0.609375 81.410156 Z M 1.6875 19.46875 " clip-rule="nonzero"/></clipPath><clipPath id="5fb7165acd"><path d="M 1.6875 19.46875 L 63.628906 20.550781 L 62.546875 82.492188 L 0.609375 81.410156 Z M 1.6875 19.46875 " clip-rule="nonzero"/></clipPath><clipPath id="fa59856c0a"><path d="M 28 64 L 36 64 L 36 67 L 28 67 Z M 28 64 " clip-rule="nonzero"/></clipPath><clipPath id="47f3eb89b7"><path d="M 1.6875 19.46875 L 63.628906 20.550781 L 62.546875 82.492188 L 0.609375 81.410156 Z M 1.6875 19.46875 " clip-rule="nonzero"/></clipPath><clipPath id="d8502c4074"><path d="M 1.6875 19.46875 L 63.628906 20.550781 L 62.546875 82.492188 L 0.609375 81.410156 Z M 1.6875 19.46875 " clip-rule="nonzero"/></clipPath><clipPath id="b6bed7d2e2"><path d="M 1.6875 19.46875 L 63.628906 20.550781 L 62.546875 82.492188 L 0.609375 81.410156 Z M 1.6875 19.46875 " clip-rule="nonzero"/></clipPath><clipPath id="b37807b84a"><path d="M 12 51 L 33 51 L 33 68 L 12 68 Z M 12 51 " clip-rule="nonzero"/></clipPath><clipPath id="0e8485b627"><path d="M 1.6875 19.46875 L 63.628906 20.550781 L 62.546875 82.492188 L 0.609375 81.410156 Z M 1.6875 19.46875 " clip-rule="nonzero"/></clipPath><clipPath id="7409bf4fad"><path d="M 1.6875 19.46875 L 63.628906 20.550781 L 62.546875 82.492188 L 0.609375 81.410156 Z M 1.6875 19.46875 " clip-rule="nonzero"/></clipPath><clipPath id="fb8870278a"><path d="M 1.6875 19.46875 L 63.628906 20.550781 L 62.546875 82.492188 L 0.609375 81.410156 Z M 1.6875 19.46875 " clip-rule="nonzero"/></clipPath><clipPath id="6a73fc4cf2"><path d="M 31 51 L 55 51 L 55 69 L 31 69 Z M 31 51 " clip-rule="nonzero"/></clipPath><clipPath id="126feac837"><path d="M 1.6875 19.46875 L 63.628906 20.550781 L 62.546875 82.492188 L 0.609375 81.410156 Z M 1.6875 19.46875 " clip-rule="nonzero"/></clipPath><clipPath id="7c489a41da"><path d="M 1.6875 19.46875 L 63.628906 20.550781 L 62.546875 82.492188 L 0.609375 81.410156 Z M 1.6875 19.46875 " clip-rule="nonzero"/></clipPath><clipPath id="59fa5aa2c6"><path d="M 1.6875 19.46875 L 63.628906 20.550781 L 62.546875 82.492188 L 0.609375 81.410156 Z M 1.6875 19.46875 " clip-rule="nonzero"/></clipPath><clipPath id="fbd48b31bf"><path d="M 18 46 L 24 46 L 24 53 L 18 53 Z M 18 46 " clip-rule="nonzero"/></clipPath><clipPath id="cf90be98b7"><path d="M 1.6875 19.46875 L 63.628906 20.550781 L 62.546875 82.492188 L 0.609375 81.410156 Z M 1.6875 19.46875 " clip-rule="nonzero"/></clipPath><clipPath id="4f4f0ace0b"><path d="M 1.6875 19.46875 L 63.628906 20.550781 L 62.546875 82.492188 L 0.609375 81.410156 Z M 1.6875 19.46875 " clip-rule="nonzero"/></clipPath><clipPath id="019ac37aee"><path d="M 1.6875 19.46875 L 63.628906 20.550781 L 62.546875 82.492188 L 0.609375 81.410156 Z M 1.6875 19.46875 " clip-rule="nonzero"/></clipPath><clipPath id="9e48471c33"><path d="M 18 48 L 24 48 L 24 53 L 18 53 Z M 18 48 " clip-rule="nonzero"/></clipPath><clipPath id="ea34d7da56"><path d="M 1.6875 19.46875 L 63.628906 20.550781 L 62.546875 82.492188 L 0.609375 81.410156 Z M 1.6875 19.46875 " clip-rule="nonzero"/></clipPath><clipPath id="d16b36e694"><path d="M 1.6875 19.46875 L 63.628906 20.550781 L 62.546875 82.492188 L 0.609375 81.410156 Z M 1.6875 19.46875 " clip-rule="nonzero"/></clipPath><clipPath id="4232558daf"><path d="M 1.6875 19.46875 L 63.628906 20.550781 L 62.546875 82.492188 L 0.609375 81.410156 Z M 1.6875 19.46875 " clip-rule="nonzero"/></clipPath><clipPath id="e18cf51827"><path d="M 40 47 L 47 47 L 47 53 L 40 53 Z M 40 47 " clip-rule="nonzero"/></clipPath><clipPath id="add0e51c0a"><path d="M 1.6875 19.46875 L 63.628906 20.550781 L 62.546875 82.492188 L 0.609375 81.410156 Z M 1.6875 19.46875 " clip-rule="nonzero"/></clipPath><clipPath id="0e7e1b31d6"><path d="M 1.6875 19.46875 L 63.628906 20.550781 L 62.546875 82.492188 L 0.609375 81.410156 Z M 1.6875 19.46875 " clip-rule="nonzero"/></clipPath><clipPath id="90de0e19a0"><path d="M 1.6875 19.46875 L 63.628906 20.550781 L 62.546875 82.492188 L 0.609375 81.410156 Z M 1.6875 19.46875 " clip-rule="nonzero"/></clipPath><clipPath id="834582a5d3"><path d="M 5 19 L 22 19 L 22 37 L 5 37 Z M 5 19 " clip-rule="nonzero"/></clipPath><clipPath id="431f20c5de"><path d="M 1.6875 19.46875 L 63.628906 20.550781 L 62.546875 82.492188 L 0.609375 81.410156 Z M 1.6875 19.46875 " clip-rule="nonzero"/></clipPath><clipPath id="a374bc5926"><path d="M 1.6875 19.46875 L 63.628906 20.550781 L 62.546875 82.492188 L 0.609375 81.410156 Z M 1.6875 19.46875 " clip-rule="nonzero"/></clipPath><clipPath id="82236ed653"><path d="M 1.6875 19.46875 L 63.628906 20.550781 L 62.546875 82.492188 L 0.609375 81.410156 Z M 1.6875 19.46875 " clip-rule="nonzero"/></clipPath><clipPath id="b056fbcedc"><path d="M 11 19 L 22 19 L 22 37 L 11 37 Z M 11 19 " clip-rule="nonzero"/></clipPath><clipPath id="73d02ba210"><path d="M 1.6875 19.46875 L 63.628906 20.550781 L 62.546875 82.492188 L 0.609375 81.410156 Z M 1.6875 19.46875 " clip-rule="nonzero"/></clipPath><clipPath id="2b5ae01dcb"><path d="M 1.6875 19.46875 L 63.628906 20.550781 L 62.546875 82.492188 L 0.609375 81.410156 Z M 1.6875 19.46875 " clip-rule="nonzero"/></clipPath><clipPath id="087bc04888"><path d="M 1.6875 19.46875 L 63.628906 20.550781 L 62.546875 82.492188 L 0.609375 81.410156 Z M 1.6875 19.46875 " clip-rule="nonzero"/></clipPath><clipPath id="6cedf6288e"><path d="M 45 20 L 59 20 L 59 38 L 45 38 Z M 45 20 " clip-rule="nonzero"/></clipPath><clipPath id="ee164f7b5e"><path d="M 1.6875 19.46875 L 63.628906 20.550781 L 62.546875 82.492188 L 0.609375 81.410156 Z M 1.6875 19.46875 " clip-rule="nonzero"/></clipPath><clipPath id="689d1e0117"><path d="M 1.6875 19.46875 L 63.628906 20.550781 L 62.546875 82.492188 L 0.609375 81.410156 Z M 1.6875 19.46875 " clip-rule="nonzero"/></clipPath><clipPath id="e4be5c2954"><path d="M 1.6875 19.46875 L 63.628906 20.550781 L 62.546875 82.492188 L 0.609375 81.410156 Z M 1.6875 19.46875 " clip-rule="nonzero"/></clipPath><clipPath id="d7cc6660cb"><path d="M 43 20 L 54 20 L 54 38 L 43 38 Z M 43 20 " clip-rule="nonzero"/></clipPath><clipPath id="1d1457c2bc"><path d="M 1.6875 19.46875 L 63.628906 20.550781 L 62.546875 82.492188 L 0.609375 81.410156 Z M 1.6875 19.46875 " clip-rule="nonzero"/></clipPath><clipPath id="1c03dcbdca"><path d="M 1.6875 19.46875 L 63.628906 20.550781 L 62.546875 82.492188 L 0.609375 81.410156 Z M 1.6875 19.46875 " clip-rule="nonzero"/></clipPath><clipPath id="fbc421e000"><path d="M 1.6875 19.46875 L 63.628906 20.550781 L 62.546875 82.492188 L 0.609375 81.410156 Z M 1.6875 19.46875 " clip-rule="nonzero"/></clipPath><clipPath id="92a51944ac"><path d="M 27 57 L 37 57 L 37 62 L 27 62 Z M 27 57 " clip-rule="nonzero"/></clipPath><clipPath id="fc1f79942b"><path d="M 1.6875 19.46875 L 63.628906 20.550781 L 62.546875 82.492188 L 0.609375 81.410156 Z M 1.6875 19.46875 " clip-rule="nonzero"/></clipPath><clipPath id="bfcf28da9c"><path d="M 1.6875 19.46875 L 63.628906 20.550781 L 62.546875 82.492188 L 0.609375 81.410156 Z M 1.6875 19.46875 " clip-rule="nonzero"/></clipPath><clipPath id="9bfb2d47ce"><path d="M 1.6875 19.46875 L 63.628906 20.550781 L 62.546875 82.492188 L 0.609375 81.410156 Z M 1.6875 19.46875 " clip-rule="nonzero"/></clipPath><clipPath id="43c56729a5"><path d="M 28 57 L 37 57 L 37 62 L 28 62 Z M 28 57 " clip-rule="nonzero"/></clipPath><clipPath id="f7ae692c27"><path d="M 1.6875 19.46875 L 63.628906 20.550781 L 62.546875 82.492188 L 0.609375 81.410156 Z M 1.6875 19.46875 " clip-rule="nonzero"/></clipPath><clipPath id="18c9e5aa5d"><path d="M 1.6875 19.46875 L 63.628906 20.550781 L 62.546875 82.492188 L 0.609375 81.410156 Z M 1.6875 19.46875 " clip-rule="nonzero"/></clipPath><clipPath id="8677bc0949"><path d="M 1.6875 19.46875 L 63.628906 20.550781 L 62.546875 82.492188 L 0.609375 81.410156 Z M 1.6875 19.46875 " clip-rule="nonzero"/></clipPath></defs><g clip-path="url(#7616885342)"><g clip-path="url(#beea4dc8e0)"><g clip-path="url(#ee7b0d16d7)"><g clip-path="url(#b2869665e1)"><path fill="#3758f9" d="M 62.285156 51.507812 C 62.269531 52.496094 62.203125 53.480469 62.089844 54.460938 C 61.972656 55.445312 61.8125 56.417969 61.601562 57.382812 C 61.394531 58.351562 61.136719 59.304688 60.832031 60.246094 C 60.53125 61.1875 60.179688 62.109375 59.785156 63.015625 C 59.390625 63.921875 58.953125 64.808594 58.472656 65.671875 C 57.992188 66.535156 57.46875 67.371094 56.90625 68.183594 C 56.34375 68.996094 55.742188 69.78125 55.101562 70.53125 C 54.460938 71.285156 53.785156 72.007812 53.074219 72.691406 C 52.363281 73.378906 51.621094 74.03125 50.84375 74.644531 C 50.070312 75.257812 49.265625 75.832031 48.433594 76.367188 C 47.605469 76.902344 46.746094 77.394531 45.867188 77.84375 C 44.988281 78.296875 44.089844 78.703125 43.167969 79.0625 C 42.25 79.425781 41.3125 79.742188 40.363281 80.011719 C 39.410156 80.285156 38.449219 80.507812 37.476562 80.683594 C 36.503906 80.859375 35.527344 80.984375 34.539062 81.066406 C 33.554688 81.144531 32.566406 81.175781 31.578125 81.160156 C 30.589844 81.140625 29.605469 81.078125 28.625 80.960938 C 27.640625 80.847656 26.667969 80.6875 25.703125 80.476562 C 24.734375 80.265625 23.78125 80.011719 22.839844 79.707031 C 21.902344 79.402344 20.976562 79.054688 20.070312 78.660156 C 19.164062 78.265625 18.277344 77.828125 17.414062 77.347656 C 16.550781 76.867188 15.714844 76.34375 14.902344 75.78125 C 14.089844 75.21875 13.308594 74.617188 12.554688 73.976562 C 11.800781 73.335938 11.082031 72.660156 10.394531 71.949219 C 9.707031 71.238281 9.058594 70.492188 8.445312 69.71875 C 7.828125 68.945312 7.253906 68.140625 6.722656 67.308594 C 6.1875 66.476562 5.691406 65.621094 5.242188 64.742188 C 4.792969 63.863281 4.386719 62.960938 4.023438 62.042969 C 3.660156 61.121094 3.34375 60.1875 3.074219 59.238281 C 2.804688 58.285156 2.582031 57.324219 2.40625 56.351562 C 2.226562 55.378906 2.101562 54.398438 2.019531 53.414062 C 1.941406 52.429688 1.910156 51.441406 1.925781 50.453125 C 1.945312 49.464844 2.011719 48.480469 2.125 47.5 C 2.238281 46.515625 2.398438 45.542969 2.609375 44.574219 C 2.820312 43.609375 3.078125 42.65625 3.378906 41.714844 C 3.683594 40.773438 4.03125 39.851562 4.425781 38.945312 C 4.820312 38.039062 5.257812 37.152344 5.738281 36.289062 C 6.21875 35.425781 6.742188 34.589844 7.304688 33.777344 C 7.871094 32.964844 8.472656 32.179688 9.113281 31.429688 C 9.753906 30.675781 10.429688 29.953125 11.140625 29.269531 C 11.851562 28.582031 12.59375 27.929688 13.367188 27.316406 C 14.144531 26.703125 14.945312 26.128906 15.777344 25.59375 C 16.609375 25.058594 17.464844 24.566406 18.34375 24.117188 C 19.222656 23.664062 20.125 23.257812 21.042969 22.898438 C 21.964844 22.535156 22.898438 22.21875 23.851562 21.949219 C 24.800781 21.675781 25.761719 21.453125 26.734375 21.277344 C 27.707031 21.101562 28.6875 20.976562 29.671875 20.894531 C 30.65625 20.816406 31.644531 20.785156 32.632812 20.800781 C 33.621094 20.820312 34.605469 20.882812 35.589844 21 C 36.570312 21.113281 37.542969 21.273438 38.511719 21.484375 C 39.476562 21.695312 40.429688 21.949219 41.371094 22.253906 C 42.3125 22.558594 43.234375 22.90625 44.140625 23.300781 C 45.046875 23.695312 45.933594 24.132812 46.796875 24.613281 C 47.660156 25.09375 48.5 25.617188 49.3125 26.179688 C 50.125 26.742188 50.90625 27.34375 51.660156 27.984375 C 52.410156 28.625 53.132812 29.300781 53.820312 30.011719 C 54.503906 30.722656 55.15625 31.46875 55.769531 32.242188 C 56.382812 33.015625 56.957031 33.820312 57.492188 34.652344 C 58.027344 35.484375 58.519531 36.339844 58.96875 37.21875 C 59.421875 38.097656 59.828125 39 60.191406 39.917969 C 60.550781 40.835938 60.867188 41.773438 61.140625 42.722656 C 61.410156 43.675781 61.632812 44.636719 61.808594 45.609375 C 61.984375 46.582031 62.113281 47.5625 62.191406 48.546875 C 62.269531 49.53125 62.300781 50.519531 62.285156 51.507812 Z M 62.285156 51.507812 " fill-opacity="1" fill-rule="nonzero"/></g></g></g></g><g clip-path="url(#90bf283078)"><g clip-path="url(#6774705462)"><g clip-path="url(#a1c6a5ef4e)"><g clip-path="url(#92e6f13ac7)"><path fill="#3056d3" d="M 53.851562 29.980469 C 65.421875 41.960938 65.089844 61.058594 53.109375 72.628906 C 41.128906 84.195312 22.03125 83.863281 10.460938 71.882812 " fill-opacity="1" fill-rule="nonzero"/></g></g></g></g><g clip-path="url(#ab01cdb296)"><g clip-path="url(#73351f9dd1)"><g clip-path="url(#58f22e5e8e)"><g clip-path="url(#0d13c6a254)"><path fill="#fccc32" d="M 13.578125 40.757812 L 32.441406 31.882812 L 50.980469 41.410156 L 51.027344 72.789062 L 31.566406 81.949219 L 12.4375 72.117188 Z M 13.578125 40.757812 " fill-opacity="1" fill-rule="nonzero"/></g></g></g></g><g clip-path="url(#2abe19eb76)"><g clip-path="url(#e04e7e415d)"><g clip-path="url(#ca77764ccf)"><g clip-path="url(#3e1ef598e2)"><path fill="#efae0c" d="M 32.441406 31.882812 L 50.980469 41.410156 L 51.027344 72.789062 L 31.566406 81.949219 " fill-opacity="1" fill-rule="nonzero"/></g></g></g></g><g clip-path="url(#a7c2b0cff6)"><g clip-path="url(#1bc1185ee4)"><g clip-path="url(#8416a1e3ee)"><g clip-path="url(#fed3e497b9)"><path fill="#5e6664" d="M 5.90625 32.410156 L 32.582031 23.671875 L 58.941406 33.335938 L 51.167969 64.578125 L 31.710938 73.738281 L 12.582031 63.902344 Z M 5.90625 32.410156 " fill-opacity="1" fill-rule="nonzero"/></g></g></g></g><g clip-path="url(#eb1e5c6343)"><g clip-path="url(#aa11357d04)"><g clip-path="url(#f01b421593)"><g clip-path="url(#5fb7165acd)"><path fill="#2f423f" d="M 32.582031 23.671875 L 58.941406 33.335938 L 51.167969 64.578125 L 31.710938 73.738281 L 12.582031 63.902344 " fill-opacity="1" fill-rule="nonzero"/></g></g></g></g><g clip-path="url(#fa59856c0a)"><g clip-path="url(#47f3eb89b7)"><g clip-path="url(#d8502c4074)"><g clip-path="url(#b6bed7d2e2)"><path fill="#16afc4" d="M 28.003906 64.863281 L 31.828125 66.910156 L 35.722656 65 " fill-opacity="1" fill-rule="nonzero"/></g></g></g></g><g clip-path="url(#b37807b84a)"><g clip-path="url(#0e8485b627)"><g clip-path="url(#7409bf4fad)"><g clip-path="url(#fb8870278a)"><path fill="#5e6664" d="M 20.855469 54.84375 L 32.195312 51.476562 L 31.960938 65.03125 L 20.429688 67.898438 L 12.582031 63.902344 " fill-opacity="1" fill-rule="nonzero"/></g></g></g></g><g clip-path="url(#6a73fc4cf2)"><g clip-path="url(#126feac837)"><g clip-path="url(#7c489a41da)"><g clip-path="url(#59fa5aa2c6)"><path fill="#404c49" d="M 54.367188 51.46875 L 43.214844 55.230469 L 32.195312 51.476562 L 31.960938 65.03125 L 43.1875 68.296875 L 51.167969 64.578125 Z M 54.367188 51.46875 " fill-opacity="1" fill-rule="nonzero"/></g></g></g></g><g clip-path="url(#fbd48b31bf)"><g clip-path="url(#cf90be98b7)"><g clip-path="url(#4f4f0ace0b)"><g clip-path="url(#019ac37aee)"><path fill="#fccc32" d="M 23.179688 52.109375 L 18.265625 50.144531 L 18.328125 46.582031 L 23.238281 48.648438 Z M 23.179688 52.109375 " fill-opacity="1" fill-rule="nonzero"/></g></g></g></g><g clip-path="url(#9e48471c33)"><g clip-path="url(#ea34d7da56)"><g clip-path="url(#d16b36e694)"><g clip-path="url(#4232558daf)"><path fill="#efae0c" d="M 23.234375 48.847656 L 23.179688 52.109375 L 18.265625 50.144531 " fill-opacity="1" fill-rule="nonzero"/></g></g></g></g><g clip-path="url(#e18cf51827)"><g clip-path="url(#add0e51c0a)"><g clip-path="url(#0e7e1b31d6)"><g clip-path="url(#90de0e19a0)"><path fill="#fccc32" d="M 40.988281 52.421875 L 45.96875 50.628906 L 46.03125 47.066406 L 41.050781 48.957031 Z M 40.988281 52.421875 " fill-opacity="1" fill-rule="nonzero"/><path fill="#efae0c" d="M 40.988281 52.421875 L 45.96875 50.628906 L 46.027344 47.265625 " fill-opacity="1" fill-rule="nonzero"/></g></g></g></g><g clip-path="url(#834582a5d3)"><g clip-path="url(#431f20c5de)"><g clip-path="url(#a374bc5926)"><g clip-path="url(#82236ed653)"><path fill="#e28faf" d="M 15.128906 36.925781 L 5.90625 32.3125 L 11.375 19.636719 L 21.605469 28.921875 Z M 15.128906 36.925781 " fill-opacity="1" fill-rule="nonzero"/></g></g></g></g><g clip-path="url(#b056fbcedc)"><g clip-path="url(#73d02ba210)"><g clip-path="url(#2b5ae01dcb)"><g clip-path="url(#087bc04888)"><path fill="#2f423f" d="M 11.375 19.636719 L 21.605469 28.921875 L 15.128906 36.925781 " fill-opacity="1" fill-rule="nonzero"/></g></g></g></g><g clip-path="url(#6cedf6288e)"><g clip-path="url(#ee164f7b5e)"><g clip-path="url(#689d1e0117)"><g clip-path="url(#e4be5c2954)"><path fill="#ffcfde" d="M 49.5625 37.527344 L 58.941406 33.238281 L 53.921875 20.382812 L 45.847656 29.347656 Z M 49.5625 37.527344 " fill-opacity="1" fill-rule="nonzero"/></g></g></g></g><g clip-path="url(#d7cc6660cb)"><g clip-path="url(#1d1457c2bc)"><g clip-path="url(#1c03dcbdca)"><g clip-path="url(#fbc421e000)"><path fill="#2f423f" d="M 53.921875 20.382812 L 43.371094 29.304688 L 49.5625 37.527344 " fill-opacity="1" fill-rule="nonzero"/></g></g></g></g><g clip-path="url(#92a51944ac)"><g clip-path="url(#fc1f79942b)"><g clip-path="url(#bfcf28da9c)"><g clip-path="url(#9bfb2d47ce)"><path fill="#ffcfde" d="M 27.039062 57.820312 L 28.09375 59.621094 L 31.921875 61.566406 L 35.8125 59.855469 L 36.933594 57.992188 Z M 27.039062 57.820312 " fill-opacity="1" fill-rule="nonzero"/></g></g></g></g><g clip-path="url(#43c56729a5)"><g clip-path="url(#f7ae692c27)"><g clip-path="url(#18c9e5aa5d)"><g clip-path="url(#8677bc0949)"><path fill="#e28faf" d="M 28.09375 59.621094 L 31.921875 61.566406 L 35.8125 59.855469 L 36.933594 57.992188 " fill-opacity="1" fill-rule="nonzero"/></g></g></g></g><g fill="#ffffff" fill-opacity="1"><g transform="translate(76.149874, 72.530764)"><g><path d="M 13.578125 -21.28125 L 16.390625 -21.28125 C 19.003906 -21.28125 20.960938 -21.796875 22.265625 -22.828125 C 23.566406 -23.859375 24.21875 -25.363281 24.21875 -27.34375 C 24.21875 -29.34375 23.671875 -30.816406 22.578125 -31.765625 C 21.492188 -32.722656 19.785156 -33.203125 17.453125 -33.203125 L 13.578125 -33.203125 Z M 32.828125 -27.65625 C 32.828125 -23.332031 31.472656 -20.023438 28.765625 -17.734375 C 26.066406 -15.441406 22.222656 -14.296875 17.234375 -14.296875 L 13.578125 -14.296875 L 13.578125 0 L 5.0625 0 L 5.0625 -40.1875 L 17.890625 -40.1875 C 22.765625 -40.1875 26.472656 -39.132812 29.015625 -37.03125 C 31.554688 -34.9375 32.828125 -31.8125 32.828125 -27.65625 Z M 32.828125 -27.65625 "/></g></g></g><g fill="#ffffff" fill-opacity="1"><g transform="translate(114.145207, 72.530764)"><g><path d="M 37.765625 -40.1875 L 37.765625 -14.1875 C 37.765625 -11.21875 37.097656 -8.613281 35.765625 -6.375 C 34.441406 -4.144531 32.523438 -2.429688 30.015625 -1.234375 C 27.503906 -0.046875 24.535156 0.546875 21.109375 0.546875 C 15.941406 0.546875 11.925781 -0.773438 9.0625 -3.421875 C 6.207031 -6.066406 4.78125 -9.691406 4.78125 -14.296875 L 4.78125 -40.1875 L 13.28125 -40.1875 L 13.28125 -15.59375 C 13.28125 -12.488281 13.898438 -10.210938 15.140625 -8.765625 C 16.390625 -7.316406 18.453125 -6.59375 21.328125 -6.59375 C 24.117188 -6.59375 26.140625 -7.320312 27.390625 -8.78125 C 28.648438 -10.238281 29.28125 -12.523438 29.28125 -15.640625 L 29.28125 -40.1875 Z M 37.765625 -40.1875 "/></g></g></g><g fill="#ffffff" fill-opacity="1"><g transform="translate(159.342271, 72.530764)"><g><path d="M 22.078125 0 L 12.390625 -31.53125 L 12.15625 -31.53125 C 12.5 -25.113281 12.671875 -20.832031 12.671875 -18.6875 L 12.671875 0 L 5.0625 0 L 5.0625 -40.1875 L 16.65625 -40.1875 L 26.171875 -9.453125 L 26.328125 -9.453125 L 36.421875 -40.1875 L 48.015625 -40.1875 L 48.015625 0 L 40.078125 0 L 40.078125 -19.015625 C 40.078125 -19.921875 40.085938 -20.957031 40.109375 -22.125 C 40.140625 -23.300781 40.265625 -26.414062 40.484375 -31.46875 L 40.25 -31.46875 L 29.875 0 Z M 22.078125 0 "/></g></g></g><g fill="#ffffff" fill-opacity="1"><g transform="translate(215.067062, 72.530764)"><g><path d="M 5.0625 0 L 5.0625 -40.1875 L 13.578125 -40.1875 L 13.578125 0 Z M 5.0625 0 "/></g></g></g></svg>