<svg xmlns="http://www.w3.org/2000/svg" xmlns:xlink="http://www.w3.org/1999/xlink" width="499" zoomAndPan="magnify" viewBox="0 0 374.25 103.5" height="138" preserveAspectRatio="xMidYMid meet" version="1.0"><defs><g/><clipPath id="194df24f24"><path d="M 1 20 L 63 20 L 63 82 L 1 82 Z M 1 20 " clip-rule="nonzero"/></clipPath><clipPath id="05683fa421"><path d="M 1.601562 19.46875 L 63.542969 20.550781 L 62.460938 82.492188 L 0.519531 81.410156 Z M 1.601562 19.46875 " clip-rule="nonzero"/></clipPath><clipPath id="9c274a12f7"><path d="M 1.601562 19.46875 L 63.542969 20.550781 L 62.460938 82.492188 L 0.519531 81.410156 Z M 1.601562 19.46875 " clip-rule="nonzero"/></clipPath><clipPath id="4c62e09ff3"><path d="M 1.601562 19.46875 L 63.542969 20.550781 L 62.460938 82.492188 L 0.519531 81.410156 Z M 1.601562 19.46875 " clip-rule="nonzero"/></clipPath><clipPath id="4e4c677469"><path d="M 10 29 L 63 29 L 63 82 L 10 82 Z M 10 29 " clip-rule="nonzero"/></clipPath><clipPath id="8aa2abba79"><path d="M 1.601562 19.46875 L 63.542969 20.550781 L 62.460938 82.492188 L 0.519531 81.410156 Z M 1.601562 19.46875 " clip-rule="nonzero"/></clipPath><clipPath id="ae66e173ed"><path d="M 1.601562 19.46875 L 63.542969 20.550781 L 62.460938 82.492188 L 0.519531 81.410156 Z M 1.601562 19.46875 " clip-rule="nonzero"/></clipPath><clipPath id="fa9e824d5d"><path d="M 1.601562 19.46875 L 63.542969 20.550781 L 62.460938 82.492188 L 0.519531 81.410156 Z M 1.601562 19.46875 " clip-rule="nonzero"/></clipPath><clipPath id="08a7ea1d14"><path d="M 12 31 L 51 31 L 51 82 L 12 82 Z M 12 31 " clip-rule="nonzero"/></clipPath><clipPath id="74b3370732"><path d="M 1.601562 19.46875 L 63.542969 20.550781 L 62.460938 82.492188 L 0.519531 81.410156 Z M 1.601562 19.46875 " clip-rule="nonzero"/></clipPath><clipPath id="93b4832066"><path d="M 1.601562 19.46875 L 63.542969 20.550781 L 62.460938 82.492188 L 0.519531 81.410156 Z M 1.601562 19.46875 " clip-rule="nonzero"/></clipPath><clipPath id="f81c1cd71d"><path d="M 1.601562 19.46875 L 63.542969 20.550781 L 62.460938 82.492188 L 0.519531 81.410156 Z M 1.601562 19.46875 " clip-rule="nonzero"/></clipPath><clipPath id="7789a0b7dc"><path d="M 31 31 L 51 31 L 51 82 L 31 82 Z M 31 31 " clip-rule="nonzero"/></clipPath><clipPath id="d0cb4cf277"><path d="M 1.601562 19.46875 L 63.542969 20.550781 L 62.460938 82.492188 L 0.519531 81.410156 Z M 1.601562 19.46875 " clip-rule="nonzero"/></clipPath><clipPath id="76cb278097"><path d="M 1.601562 19.46875 L 63.542969 20.550781 L 62.460938 82.492188 L 0.519531 81.410156 Z M 1.601562 19.46875 " clip-rule="nonzero"/></clipPath><clipPath id="3ad34424b3"><path d="M 1.601562 19.46875 L 63.542969 20.550781 L 62.460938 82.492188 L 0.519531 81.410156 Z M 1.601562 19.46875 " clip-rule="nonzero"/></clipPath><clipPath id="c045658e62"><path d="M 5 23 L 59 23 L 59 74 L 5 74 Z M 5 23 " clip-rule="nonzero"/></clipPath><clipPath id="8e28f6fafb"><path d="M 1.601562 19.46875 L 63.542969 20.550781 L 62.460938 82.492188 L 0.519531 81.410156 Z M 1.601562 19.46875 " clip-rule="nonzero"/></clipPath><clipPath id="da59fc4f55"><path d="M 1.601562 19.46875 L 63.542969 20.550781 L 62.460938 82.492188 L 0.519531 81.410156 Z M 1.601562 19.46875 " clip-rule="nonzero"/></clipPath><clipPath id="0c32f73b73"><path d="M 1.601562 19.46875 L 63.542969 20.550781 L 62.460938 82.492188 L 0.519531 81.410156 Z M 1.601562 19.46875 " clip-rule="nonzero"/></clipPath><clipPath id="fc3eb000ff"><path d="M 12 23 L 59 23 L 59 74 L 12 74 Z M 12 23 " clip-rule="nonzero"/></clipPath><clipPath id="ea253ab54c"><path d="M 1.601562 19.46875 L 63.542969 20.550781 L 62.460938 82.492188 L 0.519531 81.410156 Z M 1.601562 19.46875 " clip-rule="nonzero"/></clipPath><clipPath id="8e51bb4cdb"><path d="M 1.601562 19.46875 L 63.542969 20.550781 L 62.460938 82.492188 L 0.519531 81.410156 Z M 1.601562 19.46875 " clip-rule="nonzero"/></clipPath><clipPath id="26b9637070"><path d="M 1.601562 19.46875 L 63.542969 20.550781 L 62.460938 82.492188 L 0.519531 81.410156 Z M 1.601562 19.46875 " clip-rule="nonzero"/></clipPath><clipPath id="8a1e4713d0"><path d="M 27 64 L 36 64 L 36 67 L 27 67 Z M 27 64 " clip-rule="nonzero"/></clipPath><clipPath id="c453a4d4cb"><path d="M 1.601562 19.46875 L 63.542969 20.550781 L 62.460938 82.492188 L 0.519531 81.410156 Z M 1.601562 19.46875 " clip-rule="nonzero"/></clipPath><clipPath id="d4182dc219"><path d="M 1.601562 19.46875 L 63.542969 20.550781 L 62.460938 82.492188 L 0.519531 81.410156 Z M 1.601562 19.46875 " clip-rule="nonzero"/></clipPath><clipPath id="92f1836301"><path d="M 1.601562 19.46875 L 63.542969 20.550781 L 62.460938 82.492188 L 0.519531 81.410156 Z M 1.601562 19.46875 " clip-rule="nonzero"/></clipPath><clipPath id="361b3ec065"><path d="M 12 51 L 33 51 L 33 68 L 12 68 Z M 12 51 " clip-rule="nonzero"/></clipPath><clipPath id="61c74d066d"><path d="M 1.601562 19.46875 L 63.542969 20.550781 L 62.460938 82.492188 L 0.519531 81.410156 Z M 1.601562 19.46875 " clip-rule="nonzero"/></clipPath><clipPath id="204e520fbc"><path d="M 1.601562 19.46875 L 63.542969 20.550781 L 62.460938 82.492188 L 0.519531 81.410156 Z M 1.601562 19.46875 " clip-rule="nonzero"/></clipPath><clipPath id="fbc4891109"><path d="M 1.601562 19.46875 L 63.542969 20.550781 L 62.460938 82.492188 L 0.519531 81.410156 Z M 1.601562 19.46875 " clip-rule="nonzero"/></clipPath><clipPath id="1405c093ad"><path d="M 31 51 L 55 51 L 55 69 L 31 69 Z M 31 51 " clip-rule="nonzero"/></clipPath><clipPath id="25e115758d"><path d="M 1.601562 19.46875 L 63.542969 20.550781 L 62.460938 82.492188 L 0.519531 81.410156 Z M 1.601562 19.46875 " clip-rule="nonzero"/></clipPath><clipPath id="5e59afc9fd"><path d="M 1.601562 19.46875 L 63.542969 20.550781 L 62.460938 82.492188 L 0.519531 81.410156 Z M 1.601562 19.46875 " clip-rule="nonzero"/></clipPath><clipPath id="99578a898b"><path d="M 1.601562 19.46875 L 63.542969 20.550781 L 62.460938 82.492188 L 0.519531 81.410156 Z M 1.601562 19.46875 " clip-rule="nonzero"/></clipPath><clipPath id="d8a3dd6268"><path d="M 18 46 L 24 46 L 24 53 L 18 53 Z M 18 46 " clip-rule="nonzero"/></clipPath><clipPath id="29e2283442"><path d="M 1.601562 19.46875 L 63.542969 20.550781 L 62.460938 82.492188 L 0.519531 81.410156 Z M 1.601562 19.46875 " clip-rule="nonzero"/></clipPath><clipPath id="6427d84517"><path d="M 1.601562 19.46875 L 63.542969 20.550781 L 62.460938 82.492188 L 0.519531 81.410156 Z M 1.601562 19.46875 " clip-rule="nonzero"/></clipPath><clipPath id="3304db0a01"><path d="M 1.601562 19.46875 L 63.542969 20.550781 L 62.460938 82.492188 L 0.519531 81.410156 Z M 1.601562 19.46875 " clip-rule="nonzero"/></clipPath><clipPath id="7d57c4eb53"><path d="M 18 48 L 24 48 L 24 53 L 18 53 Z M 18 48 " clip-rule="nonzero"/></clipPath><clipPath id="6d7632d8b0"><path d="M 1.601562 19.46875 L 63.542969 20.550781 L 62.460938 82.492188 L 0.519531 81.410156 Z M 1.601562 19.46875 " clip-rule="nonzero"/></clipPath><clipPath id="776086e3f2"><path d="M 1.601562 19.46875 L 63.542969 20.550781 L 62.460938 82.492188 L 0.519531 81.410156 Z M 1.601562 19.46875 " clip-rule="nonzero"/></clipPath><clipPath id="0d9a249757"><path d="M 1.601562 19.46875 L 63.542969 20.550781 L 62.460938 82.492188 L 0.519531 81.410156 Z M 1.601562 19.46875 " clip-rule="nonzero"/></clipPath><clipPath id="7418e6e47e"><path d="M 40 47 L 46 47 L 46 53 L 40 53 Z M 40 47 " clip-rule="nonzero"/></clipPath><clipPath id="a7c79a5346"><path d="M 1.601562 19.46875 L 63.542969 20.550781 L 62.460938 82.492188 L 0.519531 81.410156 Z M 1.601562 19.46875 " clip-rule="nonzero"/></clipPath><clipPath id="4e33a56e05"><path d="M 1.601562 19.46875 L 63.542969 20.550781 L 62.460938 82.492188 L 0.519531 81.410156 Z M 1.601562 19.46875 " clip-rule="nonzero"/></clipPath><clipPath id="bd7a413eff"><path d="M 1.601562 19.46875 L 63.542969 20.550781 L 62.460938 82.492188 L 0.519531 81.410156 Z M 1.601562 19.46875 " clip-rule="nonzero"/></clipPath><clipPath id="8727991abf"><path d="M 5 19 L 22 19 L 22 37 L 5 37 Z M 5 19 " clip-rule="nonzero"/></clipPath><clipPath id="0bef97f59b"><path d="M 1.601562 19.46875 L 63.542969 20.550781 L 62.460938 82.492188 L 0.519531 81.410156 Z M 1.601562 19.46875 " clip-rule="nonzero"/></clipPath><clipPath id="93ddedc6e2"><path d="M 1.601562 19.46875 L 63.542969 20.550781 L 62.460938 82.492188 L 0.519531 81.410156 Z M 1.601562 19.46875 " clip-rule="nonzero"/></clipPath><clipPath id="db31e9d2a5"><path d="M 1.601562 19.46875 L 63.542969 20.550781 L 62.460938 82.492188 L 0.519531 81.410156 Z M 1.601562 19.46875 " clip-rule="nonzero"/></clipPath><clipPath id="ecd78fde3c"><path d="M 11 19 L 22 19 L 22 37 L 11 37 Z M 11 19 " clip-rule="nonzero"/></clipPath><clipPath id="85bbc1707b"><path d="M 1.601562 19.46875 L 63.542969 20.550781 L 62.460938 82.492188 L 0.519531 81.410156 Z M 1.601562 19.46875 " clip-rule="nonzero"/></clipPath><clipPath id="0f571a7213"><path d="M 1.601562 19.46875 L 63.542969 20.550781 L 62.460938 82.492188 L 0.519531 81.410156 Z M 1.601562 19.46875 " clip-rule="nonzero"/></clipPath><clipPath id="e704b7e0cf"><path d="M 1.601562 19.46875 L 63.542969 20.550781 L 62.460938 82.492188 L 0.519531 81.410156 Z M 1.601562 19.46875 " clip-rule="nonzero"/></clipPath><clipPath id="e6da79cd81"><path d="M 45 20 L 59 20 L 59 38 L 45 38 Z M 45 20 " clip-rule="nonzero"/></clipPath><clipPath id="2ee6a10d05"><path d="M 1.601562 19.46875 L 63.542969 20.550781 L 62.460938 82.492188 L 0.519531 81.410156 Z M 1.601562 19.46875 " clip-rule="nonzero"/></clipPath><clipPath id="717972f527"><path d="M 1.601562 19.46875 L 63.542969 20.550781 L 62.460938 82.492188 L 0.519531 81.410156 Z M 1.601562 19.46875 " clip-rule="nonzero"/></clipPath><clipPath id="d92e8b30d4"><path d="M 1.601562 19.46875 L 63.542969 20.550781 L 62.460938 82.492188 L 0.519531 81.410156 Z M 1.601562 19.46875 " clip-rule="nonzero"/></clipPath><clipPath id="1a2d40447b"><path d="M 43 20 L 54 20 L 54 38 L 43 38 Z M 43 20 " clip-rule="nonzero"/></clipPath><clipPath id="729c67bb59"><path d="M 1.601562 19.46875 L 63.542969 20.550781 L 62.460938 82.492188 L 0.519531 81.410156 Z M 1.601562 19.46875 " clip-rule="nonzero"/></clipPath><clipPath id="1ba7d8dfb0"><path d="M 1.601562 19.46875 L 63.542969 20.550781 L 62.460938 82.492188 L 0.519531 81.410156 Z M 1.601562 19.46875 " clip-rule="nonzero"/></clipPath><clipPath id="fd5a1010bd"><path d="M 1.601562 19.46875 L 63.542969 20.550781 L 62.460938 82.492188 L 0.519531 81.410156 Z M 1.601562 19.46875 " clip-rule="nonzero"/></clipPath><clipPath id="cde8f14a99"><path d="M 26 57 L 37 57 L 37 62 L 26 62 Z M 26 57 " clip-rule="nonzero"/></clipPath><clipPath id="7c9c507b3b"><path d="M 1.601562 19.46875 L 63.542969 20.550781 L 62.460938 82.492188 L 0.519531 81.410156 Z M 1.601562 19.46875 " clip-rule="nonzero"/></clipPath><clipPath id="9d17278eb0"><path d="M 1.601562 19.46875 L 63.542969 20.550781 L 62.460938 82.492188 L 0.519531 81.410156 Z M 1.601562 19.46875 " clip-rule="nonzero"/></clipPath><clipPath id="f719632a89"><path d="M 1.601562 19.46875 L 63.542969 20.550781 L 62.460938 82.492188 L 0.519531 81.410156 Z M 1.601562 19.46875 " clip-rule="nonzero"/></clipPath><clipPath id="1d7af6f77e"><path d="M 28 57 L 37 57 L 37 62 L 28 62 Z M 28 57 " clip-rule="nonzero"/></clipPath><clipPath id="90c9d2e773"><path d="M 1.601562 19.46875 L 63.542969 20.550781 L 62.460938 82.492188 L 0.519531 81.410156 Z M 1.601562 19.46875 " clip-rule="nonzero"/></clipPath><clipPath id="a05342cd1d"><path d="M 1.601562 19.46875 L 63.542969 20.550781 L 62.460938 82.492188 L 0.519531 81.410156 Z M 1.601562 19.46875 " clip-rule="nonzero"/></clipPath><clipPath id="f94aabd6a8"><path d="M 1.601562 19.46875 L 63.542969 20.550781 L 62.460938 82.492188 L 0.519531 81.410156 Z M 1.601562 19.46875 " clip-rule="nonzero"/></clipPath></defs><g clip-path="url(#194df24f24)"><g clip-path="url(#05683fa421)"><g clip-path="url(#9c274a12f7)"><g clip-path="url(#4c62e09ff3)"><path fill="#3758f9" d="M 62.199219 51.507812 C 62.179688 52.496094 62.117188 53.480469 62 54.460938 C 61.886719 55.445312 61.726562 56.417969 61.515625 57.382812 C 61.304688 58.351562 61.050781 59.304688 60.746094 60.246094 C 60.441406 61.1875 60.09375 62.109375 59.699219 63.015625 C 59.304688 63.921875 58.867188 64.808594 58.386719 65.671875 C 57.90625 66.535156 57.382812 67.371094 56.820312 68.183594 C 56.257812 68.996094 55.65625 69.78125 55.015625 70.53125 C 54.375 71.285156 53.699219 72.007812 52.988281 72.691406 C 52.277344 73.378906 51.53125 74.03125 50.757812 74.644531 C 49.984375 75.257812 49.179688 75.832031 48.347656 76.367188 C 47.515625 76.902344 46.660156 77.394531 45.78125 77.84375 C 44.902344 78.296875 44 78.703125 43.082031 79.0625 C 42.164062 79.425781 41.226562 79.742188 40.277344 80.011719 C 39.324219 80.285156 38.363281 80.507812 37.390625 80.683594 C 36.417969 80.859375 35.4375 80.984375 34.453125 81.066406 C 33.46875 81.144531 32.480469 81.175781 31.492188 81.160156 C 30.503906 81.140625 29.519531 81.078125 28.539062 80.960938 C 27.554688 80.847656 26.582031 80.6875 25.617188 80.476562 C 24.648438 80.265625 23.695312 80.011719 22.753906 79.707031 C 21.8125 79.402344 20.890625 79.054688 19.984375 78.660156 C 19.078125 78.265625 18.191406 77.828125 17.328125 77.347656 C 16.464844 76.867188 15.628906 76.34375 14.816406 75.78125 C 14.003906 75.21875 13.21875 74.617188 12.46875 73.976562 C 11.714844 73.335938 10.996094 72.660156 10.308594 71.949219 C 9.621094 71.238281 8.96875 70.492188 8.355469 69.71875 C 7.742188 68.945312 7.167969 68.140625 6.632812 67.308594 C 6.097656 66.476562 5.605469 65.621094 5.15625 64.742188 C 4.707031 63.863281 4.296875 62.960938 3.9375 62.042969 C 3.574219 61.121094 3.257812 60.1875 2.988281 59.238281 C 2.71875 58.285156 2.492188 57.324219 2.316406 56.351562 C 2.140625 55.378906 2.015625 54.398438 1.933594 53.414062 C 1.855469 52.429688 1.824219 51.441406 1.839844 50.453125 C 1.859375 49.464844 1.921875 48.480469 2.039062 47.5 C 2.152344 46.515625 2.3125 45.542969 2.523438 44.574219 C 2.734375 43.609375 2.988281 42.65625 3.292969 41.714844 C 3.597656 40.773438 3.945312 39.851562 4.339844 38.945312 C 4.734375 38.039062 5.171875 37.152344 5.652344 36.289062 C 6.132812 35.425781 6.65625 34.589844 7.21875 33.777344 C 7.78125 32.964844 8.386719 32.179688 9.023438 31.429688 C 9.664062 30.675781 10.339844 29.953125 11.050781 29.269531 C 11.761719 28.582031 12.507812 27.929688 13.28125 27.316406 C 14.054688 26.703125 14.859375 26.128906 15.691406 25.59375 C 16.523438 25.058594 17.378906 24.566406 18.257812 24.117188 C 19.136719 23.664062 20.039062 23.257812 20.957031 22.898438 C 21.878906 22.535156 22.8125 22.21875 23.761719 21.949219 C 24.714844 21.675781 25.675781 21.453125 26.648438 21.277344 C 27.621094 21.101562 28.601562 20.976562 29.585938 20.894531 C 30.570312 20.816406 31.558594 20.785156 32.546875 20.800781 C 33.535156 20.820312 34.519531 20.882812 35.503906 21 C 36.484375 21.113281 37.457031 21.273438 38.425781 21.484375 C 39.390625 21.695312 40.34375 21.949219 41.285156 22.253906 C 42.226562 22.558594 43.148438 22.90625 44.054688 23.300781 C 44.960938 23.695312 45.847656 24.132812 46.710938 24.613281 C 47.574219 25.09375 48.414062 25.617188 49.222656 26.179688 C 50.035156 26.742188 50.820312 27.34375 51.574219 27.984375 C 52.324219 28.625 53.046875 29.300781 53.730469 30.011719 C 54.417969 30.722656 55.070312 31.46875 55.683594 32.242188 C 56.296875 33.015625 56.871094 33.820312 57.40625 34.652344 C 57.941406 35.484375 58.433594 36.339844 58.882812 37.21875 C 59.335938 38.097656 59.742188 39 60.101562 39.917969 C 60.464844 40.835938 60.78125 41.773438 61.050781 42.722656 C 61.324219 43.675781 61.546875 44.636719 61.722656 45.609375 C 61.898438 46.582031 62.027344 47.5625 62.105469 48.546875 C 62.183594 49.53125 62.214844 50.519531 62.199219 51.507812 Z M 62.199219 51.507812 " fill-opacity="1" fill-rule="nonzero"/></g></g></g></g><g clip-path="url(#4e4c677469)"><g clip-path="url(#8aa2abba79)"><g clip-path="url(#ae66e173ed)"><g clip-path="url(#fa9e824d5d)"><path fill="#3056d3" d="M 53.765625 29.980469 C 65.335938 41.960938 65 61.058594 53.019531 72.628906 C 41.039062 84.195312 21.945312 83.863281 10.375 71.882812 " fill-opacity="1" fill-rule="nonzero"/></g></g></g></g><g clip-path="url(#08a7ea1d14)"><g clip-path="url(#74b3370732)"><g clip-path="url(#93b4832066)"><g clip-path="url(#f81c1cd71d)"><path fill="#fccc32" d="M 13.492188 40.757812 L 32.351562 31.882812 L 50.894531 41.410156 L 50.941406 72.789062 L 31.480469 81.949219 L 12.351562 72.117188 Z M 13.492188 40.757812 " fill-opacity="1" fill-rule="nonzero"/></g></g></g></g><g clip-path="url(#7789a0b7dc)"><g clip-path="url(#d0cb4cf277)"><g clip-path="url(#76cb278097)"><g clip-path="url(#3ad34424b3)"><path fill="#efae0c" d="M 32.351562 31.882812 L 50.894531 41.410156 L 50.941406 72.789062 L 31.480469 81.949219 " fill-opacity="1" fill-rule="nonzero"/></g></g></g></g><g clip-path="url(#c045658e62)"><g clip-path="url(#8e28f6fafb)"><g clip-path="url(#da59fc4f55)"><g clip-path="url(#0c32f73b73)"><path fill="#5e6664" d="M 5.816406 32.410156 L 32.496094 23.671875 L 58.855469 33.335938 L 51.082031 64.578125 L 31.621094 73.738281 L 12.492188 63.902344 Z M 5.816406 32.410156 " fill-opacity="1" fill-rule="nonzero"/></g></g></g></g><g clip-path="url(#fc3eb000ff)"><g clip-path="url(#ea253ab54c)"><g clip-path="url(#8e51bb4cdb)"><g clip-path="url(#26b9637070)"><path fill="#2f423f" d="M 32.496094 23.671875 L 58.855469 33.335938 L 51.082031 64.578125 L 31.621094 73.738281 L 12.492188 63.902344 " fill-opacity="1" fill-rule="nonzero"/></g></g></g></g><g clip-path="url(#8a1e4713d0)"><g clip-path="url(#c453a4d4cb)"><g clip-path="url(#d4182dc219)"><g clip-path="url(#92f1836301)"><path fill="#16afc4" d="M 27.917969 64.863281 L 31.742188 66.910156 L 35.636719 65 " fill-opacity="1" fill-rule="nonzero"/></g></g></g></g><g clip-path="url(#361b3ec065)"><g clip-path="url(#61c74d066d)"><g clip-path="url(#204e520fbc)"><g clip-path="url(#fbc4891109)"><path fill="#5e6664" d="M 20.769531 54.84375 L 32.109375 51.476562 L 31.875 65.03125 L 20.34375 67.898438 L 12.492188 63.902344 " fill-opacity="1" fill-rule="nonzero"/></g></g></g></g><g clip-path="url(#1405c093ad)"><g clip-path="url(#25e115758d)"><g clip-path="url(#5e59afc9fd)"><g clip-path="url(#99578a898b)"><path fill="#404c49" d="M 54.28125 51.46875 L 43.128906 55.230469 L 32.109375 51.476562 L 31.875 65.03125 L 43.101562 68.296875 L 51.082031 64.578125 Z M 54.28125 51.46875 " fill-opacity="1" fill-rule="nonzero"/></g></g></g></g><g clip-path="url(#d8a3dd6268)"><g clip-path="url(#29e2283442)"><g clip-path="url(#6427d84517)"><g clip-path="url(#3304db0a01)"><path fill="#fccc32" d="M 23.09375 52.109375 L 18.175781 50.144531 L 18.238281 46.582031 L 23.152344 48.648438 Z M 23.09375 52.109375 " fill-opacity="1" fill-rule="nonzero"/></g></g></g></g><g clip-path="url(#7d57c4eb53)"><g clip-path="url(#6d7632d8b0)"><g clip-path="url(#776086e3f2)"><g clip-path="url(#0d9a249757)"><path fill="#efae0c" d="M 23.148438 48.847656 L 23.09375 52.109375 L 18.175781 50.144531 " fill-opacity="1" fill-rule="nonzero"/></g></g></g></g><g clip-path="url(#7418e6e47e)"><g clip-path="url(#a7c79a5346)"><g clip-path="url(#4e33a56e05)"><g clip-path="url(#bd7a413eff)"><path fill="#fccc32" d="M 40.902344 52.421875 L 45.882812 50.628906 L 45.945312 47.066406 L 40.964844 48.957031 Z M 40.902344 52.421875 " fill-opacity="1" fill-rule="nonzero"/><path fill="#efae0c" d="M 40.902344 52.421875 L 45.882812 50.628906 L 45.941406 47.265625 " fill-opacity="1" fill-rule="nonzero"/></g></g></g></g><g clip-path="url(#8727991abf)"><g clip-path="url(#0bef97f59b)"><g clip-path="url(#93ddedc6e2)"><g clip-path="url(#db31e9d2a5)"><path fill="#e28faf" d="M 15.042969 36.925781 L 5.820312 32.3125 L 11.285156 19.636719 L 21.515625 28.921875 Z M 15.042969 36.925781 " fill-opacity="1" fill-rule="nonzero"/></g></g></g></g><g clip-path="url(#ecd78fde3c)"><g clip-path="url(#85bbc1707b)"><g clip-path="url(#0f571a7213)"><g clip-path="url(#e704b7e0cf)"><path fill="#2f423f" d="M 11.285156 19.636719 L 21.515625 28.921875 L 15.042969 36.925781 " fill-opacity="1" fill-rule="nonzero"/></g></g></g></g><g clip-path="url(#e6da79cd81)"><g clip-path="url(#2ee6a10d05)"><g clip-path="url(#717972f527)"><g clip-path="url(#d92e8b30d4)"><path fill="#ffcfde" d="M 49.476562 37.527344 L 58.855469 33.238281 L 53.835938 20.382812 L 45.757812 29.347656 Z M 49.476562 37.527344 " fill-opacity="1" fill-rule="nonzero"/></g></g></g></g><g clip-path="url(#1a2d40447b)"><g clip-path="url(#729c67bb59)"><g clip-path="url(#1ba7d8dfb0)"><g clip-path="url(#fd5a1010bd)"><path fill="#2f423f" d="M 53.835938 20.382812 L 43.285156 29.304688 L 49.476562 37.527344 " fill-opacity="1" fill-rule="nonzero"/></g></g></g></g><g clip-path="url(#cde8f14a99)"><g clip-path="url(#7c9c507b3b)"><g clip-path="url(#9d17278eb0)"><g clip-path="url(#f719632a89)"><path fill="#ffcfde" d="M 26.953125 57.820312 L 28.007812 59.621094 L 31.835938 61.566406 L 35.726562 59.855469 L 36.847656 57.992188 Z M 26.953125 57.820312 " fill-opacity="1" fill-rule="nonzero"/></g></g></g></g><g clip-path="url(#1d7af6f77e)"><g clip-path="url(#90c9d2e773)"><g clip-path="url(#a05342cd1d)"><g clip-path="url(#f94aabd6a8)"><path fill="#e28faf" d="M 28.007812 59.621094 L 31.835938 61.566406 L 35.726562 59.855469 L 36.847656 57.992188 " fill-opacity="1" fill-rule="nonzero"/></g></g></g></g><g fill="#111928" fill-opacity="1"><g transform="translate(77.124615, 72.530764)"><g><path d="M 13.578125 -21.28125 L 16.390625 -21.28125 C 19.003906 -21.28125 20.960938 -21.796875 22.265625 -22.828125 C 23.566406 -23.859375 24.21875 -25.363281 24.21875 -27.34375 C 24.21875 -29.34375 23.671875 -30.816406 22.578125 -31.765625 C 21.492188 -32.722656 19.785156 -33.203125 17.453125 -33.203125 L 13.578125 -33.203125 Z M 32.828125 -27.65625 C 32.828125 -23.332031 31.472656 -20.023438 28.765625 -17.734375 C 26.066406 -15.441406 22.222656 -14.296875 17.234375 -14.296875 L 13.578125 -14.296875 L 13.578125 0 L 5.0625 0 L 5.0625 -40.1875 L 17.890625 -40.1875 C 22.765625 -40.1875 26.472656 -39.132812 29.015625 -37.03125 C 31.554688 -34.9375 32.828125 -31.8125 32.828125 -27.65625 Z M 32.828125 -27.65625 "/></g></g></g><g fill="#111928" fill-opacity="1"><g transform="translate(115.119947, 72.530764)"><g><path d="M 37.765625 -40.1875 L 37.765625 -14.1875 C 37.765625 -11.21875 37.097656 -8.613281 35.765625 -6.375 C 34.441406 -4.144531 32.523438 -2.429688 30.015625 -1.234375 C 27.503906 -0.046875 24.535156 0.546875 21.109375 0.546875 C 15.941406 0.546875 11.925781 -0.773438 9.0625 -3.421875 C 6.207031 -6.066406 4.78125 -9.691406 4.78125 -14.296875 L 4.78125 -40.1875 L 13.28125 -40.1875 L 13.28125 -15.59375 C 13.28125 -12.488281 13.898438 -10.210938 15.140625 -8.765625 C 16.390625 -7.316406 18.453125 -6.59375 21.328125 -6.59375 C 24.117188 -6.59375 26.140625 -7.320312 27.390625 -8.78125 C 28.648438 -10.238281 29.28125 -12.523438 29.28125 -15.640625 L 29.28125 -40.1875 Z M 37.765625 -40.1875 "/></g></g></g><g fill="#111928" fill-opacity="1"><g transform="translate(160.317012, 72.530764)"><g><path d="M 22.078125 0 L 12.390625 -31.53125 L 12.15625 -31.53125 C 12.5 -25.113281 12.671875 -20.832031 12.671875 -18.6875 L 12.671875 0 L 5.0625 0 L 5.0625 -40.1875 L 16.65625 -40.1875 L 26.171875 -9.453125 L 26.328125 -9.453125 L 36.421875 -40.1875 L 48.015625 -40.1875 L 48.015625 0 L 40.078125 0 L 40.078125 -19.015625 C 40.078125 -19.921875 40.085938 -20.957031 40.109375 -22.125 C 40.140625 -23.300781 40.265625 -26.414062 40.484375 -31.46875 L 40.25 -31.46875 L 29.875 0 Z M 22.078125 0 "/></g></g></g><g fill="#111928" fill-opacity="1"><g transform="translate(216.041803, 72.530764)"><g><path d="M 5.0625 0 L 5.0625 -40.1875 L 13.578125 -40.1875 L 13.578125 0 Z M 5.0625 0 "/></g></g></g><g fill="#111928" fill-opacity="1"><g transform="translate(237.324721, 72.530764)"><g><path d="M 5.0625 0 L 5.0625 -40.1875 L 13.578125 -40.1875 L 13.578125 -7.03125 L 29.875 -7.03125 L 29.875 0 Z M 5.0625 0 "/></g></g></g><g fill="#111928" fill-opacity="1"><g transform="translate(271.774168, 72.530764)"><g><path d="M 29.65625 0 L 26.75 -9.5625 L 12.09375 -9.5625 L 9.1875 0 L 0 0 L 14.1875 -40.359375 L 24.609375 -40.359375 L 38.84375 0 Z M 24.71875 -16.71875 C 22.019531 -25.382812 20.5 -30.285156 20.15625 -31.421875 C 19.820312 -32.554688 19.582031 -33.453125 19.4375 -34.109375 C 18.832031 -31.765625 17.097656 -25.96875 14.234375 -16.71875 Z M 24.71875 -16.71875 "/></g></g></g><g fill="#111928" fill-opacity="1"><g transform="translate(313.260433, 72.530764)"><g><path d="M 5.0625 -40.1875 L 17.5625 -40.1875 C 23.257812 -40.1875 27.394531 -39.375 29.96875 -37.75 C 32.550781 -36.132812 33.84375 -33.554688 33.84375 -30.015625 C 33.84375 -27.617188 33.273438 -25.648438 32.140625 -24.109375 C 31.015625 -22.566406 29.519531 -21.640625 27.65625 -21.328125 L 27.65625 -21.0625 C 30.195312 -20.488281 32.03125 -19.421875 33.15625 -17.859375 C 34.289062 -16.304688 34.859375 -14.238281 34.859375 -11.65625 C 34.859375 -7.988281 33.53125 -5.128906 30.875 -3.078125 C 28.226562 -1.023438 24.632812 0 20.09375 0 L 5.0625 0 Z M 13.578125 -24.265625 L 18.53125 -24.265625 C 20.832031 -24.265625 22.5 -24.625 23.53125 -25.34375 C 24.570312 -26.0625 25.09375 -27.242188 25.09375 -28.890625 C 25.09375 -30.429688 24.53125 -31.535156 23.40625 -32.203125 C 22.28125 -32.867188 20.5 -33.203125 18.0625 -33.203125 L 13.578125 -33.203125 Z M 13.578125 -17.515625 L 13.578125 -7.03125 L 19.125 -7.03125 C 21.476562 -7.03125 23.210938 -7.476562 24.328125 -8.375 C 25.441406 -9.28125 26 -10.65625 26 -12.5 C 26 -15.84375 23.617188 -17.515625 18.859375 -17.515625 Z M 13.578125 -17.515625 "/></g></g></g></svg>